<?xml version="1.0" standalone="no"?>
<!DOCTYPE svg PUBLIC "-//W3C//DTD SVG 20010904//EN"
 "http://www.w3.org/TR/2001/REC-SVG-20010904/DTD/svg10.dtd">
<svg version="1.0" xmlns="http://www.w3.org/2000/svg"
 width="3840.000000pt" height="3840.000000pt" viewBox="0 0 3840.000000 3840.000000"
 preserveAspectRatio="xMidYMid meet">
<metadata>
Created by potrace 1.14, written by Peter Selinger 2001-2017
</metadata>
<g transform="translate(0.000000,3840.000000) scale(0.100000,-0.100000)"
fill="#000000" stroke="none">
<path d="M13630 33125 c0 -2 6 -22 14 -42 8 -21 17 -59 20 -84 3 -26 19 -89
35 -140 16 -52 32 -116 36 -142 3 -27 26 -117 49 -200 24 -84 49 -174 55 -202
7 -27 34 -120 61 -205 28 -85 59 -199 70 -253 28 -138 81 -307 136 -434 59
-137 78 -183 153 -372 107 -268 187 -413 355 -641 38 -52 87 -120 109 -150 83
-114 282 -286 366 -316 42 -15 149 -18 184 -5 13 5 30 16 38 23 37 37 164 128
178 128 16 -1 179 -236 221 -320 95 -189 315 -396 675 -638 121 -81 453 -248
558 -281 91 -28 255 -58 357 -65 47 -4 108 -9 135 -13 62 -7 329 -6 450 2 110
8 268 39 338 66 101 39 253 112 347 166 275 159 359 211 505 313 125 88 204
134 362 211 111 55 204 99 207 99 3 0 91 34 195 75 244 96 253 97 462 19 68
-26 102 -55 124 -108 7 -17 17 -35 22 -39 4 -5 8 -12 8 -15 1 -4 11 -29 24
-57 12 -27 34 -79 48 -115 14 -36 29 -74 33 -85 18 -41 43 -151 44 -192 1 -24
4 -43 7 -43 4 0 7 -10 7 -22 0 -13 6 -90 13 -173 8 -82 14 -260 14 -395 -1
-206 -5 -278 -27 -450 -15 -113 -34 -268 -43 -345 -17 -149 -28 -208 -76 -402
-27 -108 -40 -198 -41 -270 0 -13 -5 -23 -11 -23 -6 0 -8 -3 -4 -6 3 -3 2 -17
-4 -31 -6 -17 -6 -22 2 -17 8 4 7 0 0 -15 -7 -12 -9 -26 -6 -31 3 -6 2 -10 -3
-10 -5 0 -9 -10 -9 -22 -1 -40 -3 -49 -11 -44 -4 2 -7 -11 -7 -30 1 -19 -1
-34 -5 -34 -4 0 -6 -13 -5 -30 1 -18 -4 -31 -14 -35 -13 -5 -14 -7 -1 -15 9
-6 10 -10 3 -10 -6 0 -9 -9 -6 -20 3 -11 1 -20 -5 -20 -6 0 -9 -11 -6 -25 2
-14 0 -25 -4 -25 -8 0 -13 -34 -13 -82 0 -10 -4 -20 -9 -23 -5 -3 -7 -12 -3
-20 3 -8 1 -15 -4 -15 -5 0 -8 -12 -8 -27 1 -16 -3 -33 -8 -40 -5 -7 -6 -16
-3 -22 3 -5 -2 -12 -11 -15 -15 -6 -15 -8 -3 -16 13 -9 13 -10 0 -10 -12 0
-12 -2 -2 -9 11 -6 10 -11 -3 -25 -9 -9 -12 -16 -6 -16 6 0 4 -13 -4 -33 -11
-27 -11 -37 -2 -47 9 -10 9 -11 0 -6 -8 5 -13 1 -14 -11 0 -10 -3 -27 -5 -38
-3 -11 -7 -30 -9 -43 -2 -13 -9 -29 -15 -37 -9 -10 -9 -15 -2 -15 6 0 9 -7 6
-15 -4 -8 -9 -13 -13 -11 -3 2 -7 -10 -8 -27 -3 -56 -8 -87 -13 -87 -3 0 -6
-8 -6 -17 -1 -10 -5 -27 -9 -37 -7 -15 -5 -18 6 -12 8 4 5 0 -5 -8 -15 -12
-16 -16 -5 -16 12 0 12 -2 0 -9 -7 -5 -11 -13 -7 -19 3 -6 2 -13 -3 -17 -6 -3
-8 -12 -4 -20 3 -8 1 -15 -4 -15 -5 0 -8 -12 -8 -27 1 -16 -2 -33 -6 -38 -8
-11 -18 -66 -22 -112 -1 -13 -6 -23 -10 -23 -4 0 -7 -6 -6 -12 1 -7 -1 -24 -4
-38 -4 -14 -9 -41 -12 -60 -2 -19 -9 -53 -14 -75 -6 -22 -26 -110 -46 -195
-19 -85 -40 -171 -46 -190 -5 -19 -11 -46 -13 -60 -1 -14 -6 -31 -10 -38 -4
-7 -4 -16 -1 -22 3 -5 2 -10 -4 -10 -5 0 -10 -8 -10 -17 0 -10 -3 -31 -7 -48
-3 -16 -6 -40 -6 -52 0 -13 -4 -21 -8 -18 -4 3 -13 -15 -19 -40 -6 -25 -15
-45 -19 -45 -4 0 -12 -11 -19 -25 -8 -19 -8 -25 0 -25 7 0 5 -5 -3 -10 -12 -7
-12 -13 -4 -27 8 -14 3 -50 -22 -158 -19 -77 -36 -153 -39 -170 -3 -16 -12
-55 -20 -85 -25 -99 -114 -552 -134 -685 -11 -71 -29 -218 -41 -325 -12 -107
-41 -298 -65 -425 -70 -364 -125 -731 -125 -836 0 -55 12 -84 24 -57 3 7 3 2
1 -12 -2 -14 -9 -77 -16 -140 -8 -85 -15 -117 -28 -127 -17 -13 -245 -145
-321 -186 -25 -14 -88 -48 -140 -77 -661 -365 -1534 -692 -2410 -905 -194 -47
-655 -134 -820 -155 -47 -6 -106 -13 -132 -16 l-46 -6 5 164 c3 89 6 201 7
248 0 47 6 88 11 92 7 5 7 8 0 8 -9 0 -10 44 -2 203 1 26 -1 47 -6 47 -4 0 -5
6 0 12 7 13 9 125 14 858 2 315 0 410 -10 428 -7 13 -10 30 -7 38 3 8 -1 14
-8 14 -31 0 -49 -93 -71 -355 -3 -38 -8 -92 -10 -120 -8 -84 -18 -229 -19
-252 0 -13 -4 -23 -8 -23 -5 0 -4 -8 1 -19 6 -10 8 -21 4 -24 -3 -3 -7 -32 -9
-64 -2 -32 -5 -83 -8 -113 -8 -84 -19 -231 -20 -270 0 -19 -5 -38 -10 -42 -6
-4 -5 -12 2 -21 7 -7 9 -17 5 -20 -6 -7 -7 -15 -18 -177 -3 -52 -8 -124 -11
-160 -2 -36 -6 -99 -9 -140 -2 -41 -4 -75 -5 -75 -2 0 -11 -198 -10 -227 0
-16 -5 -28 -12 -29 -7 0 -26 -2 -43 -4 -129 -13 -569 -21 -640 -11 -35 6 -125
13 -250 21 -49 3 -101 9 -115 11 -14 3 -111 8 -217 10 -106 2 -211 8 -235 13
-24 6 -97 13 -163 16 -66 3 -130 8 -142 11 -13 2 -32 -5 -50 -20 -24 -20 -28
-31 -27 -67 2 -37 18 -165 40 -304 30 -193 120 -625 168 -807 24 -92 41 -169
39 -172 -2 -2 -19 0 -36 4 -18 5 -45 11 -62 13 -48 7 -115 26 -187 53 -37 14
-70 25 -74 24 -4 -1 -10 3 -13 8 -9 14 -107 58 -120 54 -21 -7 -11 -31 28 -61
75 -59 305 -166 401 -186 8 -2 16 -4 18 -5 1 -2 5 -3 10 -4 4 -1 21 -5 38 -10
30 -7 33 -12 83 -164 109 -332 422 -983 517 -1077 42 -41 278 -166 411 -218
35 -13 60 -26 58 -29 -3 -3 -8 -18 -11 -34 -3 -16 -8 -38 -11 -49 -4 -11 -8
-25 -9 -32 -1 -7 -11 -41 -22 -75 -29 -95 -42 -154 -42 -196 0 -20 -7 -66 -16
-102 -23 -98 -23 -340 1 -780 16 -283 39 -395 157 -745 106 -316 229 -625 323
-815 140 -281 321 -610 405 -735 15 -22 44 -67 65 -100 69 -110 82 -129 195
-300 110 -166 149 -221 294 -415 93 -125 80 -108 195 -246 114 -138 108 -132
371 -406 424 -442 607 -616 850 -810 122 -97 155 -120 395 -281 306 -206 479
-300 685 -370 213 -73 505 -104 696 -73 156 25 147 28 182 -56 17 -40 42 -102
56 -138 224 -575 283 -701 523 -1119 252 -439 356 -582 603 -831 152 -154 275
-242 463 -330 334 -157 656 -195 1064 -124 88 15 281 67 382 103 174 62 481
220 631 324 44 32 280 215 290 226 3 3 34 31 70 61 74 63 87 76 230 215 91 88
197 201 318 336 18 20 56 65 85 101 28 35 88 109 132 164 159 195 402 532 572
791 32 48 77 113 99 143 23 30 62 91 89 135 26 44 80 130 120 190 63 96 273
428 385 610 20 33 59 103 87 155 27 52 74 133 104 180 78 120 112 183 153 280
45 105 83 183 114 233 13 22 34 58 47 80 91 165 134 245 224 409 55 103 101
190 101 194 0 3 -7 4 -15 0 -12 -4 -10 4 6 37 27 54 122 209 164 267 17 25 51
81 75 125 24 44 95 159 159 255 64 96 148 225 185 285 177 284 183 291 239
315 29 12 96 46 149 76 87 48 210 99 323 134 81 26 201 88 247 129 124 110
135 283 28 441 -68 101 -173 181 -397 304 -390 214 -792 356 -1248 442 -49 9
-110 23 -135 31 -281 93 -540 148 -840 178 -185 19 -353 48 -373 66 -5 3 45
62 110 130 65 68 134 142 152 164 19 22 78 81 130 132 132 126 121 115 245
243 61 64 147 147 191 184 160 137 274 244 455 427 102 103 221 213 265 245
88 64 93 69 209 169 86 74 303 290 341 340 13 17 37 56 53 87 16 32 32 55 36
53 3 -3 4 -2 2 1 -3 3 17 47 43 98 63 119 79 204 62 326 -18 126 -42 166 -149
251 -7 6 -16 7 -22 4 -5 -3 -13 3 -19 12 -5 10 -12 17 -15 16 -3 -1 -26 6 -50
17 -143 61 -419 44 -651 -41 -44 -16 -113 -36 -154 -44 -184 -38 -342 -94
-576 -203 -152 -71 -548 -230 -654 -262 -184 -56 -308 9 -442 232 -64 106 -95
181 -145 345 -37 123 -37 120 6 163 3 3 30 34 60 70 30 36 60 70 65 76 6 6 31
35 56 65 25 30 117 137 205 239 87 102 160 187 163 190 4 3 53 61 111 130 57
69 110 130 116 135 6 6 33 37 60 70 27 33 54 65 59 71 12 13 80 93 132 155
156 186 256 297 282 312 17 10 29 23 25 28 -3 5 0 8 7 7 6 -2 14 3 17 11 3 9
0 11 -8 6 -9 -5 -11 -4 -6 4 4 6 12 9 17 5 6 -3 20 4 31 16 23 25 18 39 -6 15
-28 -28 -17 -5 13 28 16 18 77 86 136 152 60 66 123 136 141 155 18 19 56 62
86 95 29 32 62 69 74 81 11 12 103 113 204 225 101 112 205 226 231 252 26 26
49 52 51 56 2 5 44 53 94 107 50 55 110 121 135 149 74 83 114 127 124 139 6
6 54 58 105 116 52 58 104 114 115 126 17 17 169 181 240 259 l20 21 115 -54
c142 -66 157 -73 250 -112 41 -17 93 -40 115 -50 22 -9 110 -43 195 -74 132
-49 175 -70 295 -148 220 -143 232 -151 375 -233 74 -43 177 -103 229 -133
l94 -56 -8 -145 c-10 -188 -10 -460 -1 -531 4 -30 9 -68 11 -85 3 -24 23 -121
40 -195 2 -8 24 -77 49 -154 25 -76 48 -154 50 -175 15 -113 77 -252 140 -313
44 -42 99 -72 156 -83 19 -4 47 -16 62 -27 29 -20 56 -23 132 -12 65 8 103 33
134 86 23 38 26 54 26 138 1 107 -13 273 -30 350 -2 14 -7 36 -9 50 -2 14 -23
102 -45 195 -23 94 -43 181 -45 195 -2 14 -5 27 -6 30 -1 3 -3 10 -4 15 -1 6
-7 36 -14 67 -7 32 -14 70 -16 85 -2 16 -4 29 -6 31 -3 5 -6 18 -13 87 -4 39
-10 81 -12 95 -3 14 -7 93 -10 175 -2 83 -7 160 -10 173 -5 26 -99 90 -209
143 -38 18 -72 34 -75 34 -7 1 -477 237 -520 261 -19 11 -55 26 -80 33 -65 19
-214 81 -221 93 -3 5 -9 9 -13 8 -7 -1 -258 122 -266 130 -3 4 -21 12 -40 20
-19 8 -37 16 -40 19 -3 3 -27 17 -55 31 -59 29 -178 99 -252 146 -29 19 -53
31 -53 27 0 -5 -4 -3 -8 2 -10 14 -90 65 -102 65 -5 0 -10 5 -10 10 0 6 -14
17 -31 24 l-31 13 68 79 c37 44 71 81 74 84 3 3 45 50 95 105 49 55 99 111
111 125 13 14 33 37 46 51 29 32 159 177 214 238 23 25 83 93 135 151 103 117
123 139 201 225 30 33 88 98 129 145 40 47 76 87 79 90 3 3 46 52 94 110 49
58 145 160 214 226 l124 121 62 -21 c35 -12 76 -32 94 -44 17 -12 48 -29 69
-36 22 -8 93 -47 159 -89 65 -41 143 -86 172 -101 38 -20 52 -32 53 -49 0 -12
2 -29 3 -37 2 -8 6 -116 10 -240 7 -233 13 -388 21 -500 3 -36 9 -132 15 -215
6 -82 17 -204 25 -270 9 -66 20 -183 26 -260 6 -77 13 -151 14 -165 2 -14 4
-29 4 -33 1 -5 13 -7 28 -5 37 4 107 96 127 168 21 76 51 287 76 525 11 110
27 259 35 330 8 72 24 218 35 325 23 230 74 667 89 760 5 36 11 79 13 95 2 17
7 33 13 37 6 5 5 8 -3 8 -7 0 -10 5 -6 11 3 6 8 32 9 57 3 46 12 96 55 317 12
61 41 214 66 341 24 127 58 285 75 350 18 66 42 160 55 209 13 50 24 98 24
108 0 9 5 17 11 17 5 0 8 4 4 10 -5 9 26 150 45 200 5 14 12 41 14 61 4 37 43
211 53 239 3 8 7 24 9 35 1 11 17 85 34 165 17 80 40 188 51 240 11 52 22 111
25 130 19 152 79 404 175 740 12 41 22 87 23 103 0 15 4 27 9 27 4 0 7 5 7 10
0 6 -7 10 -15 10 -8 0 -15 -4 -15 -8 0 -5 -19 -17 -41 -28 -23 -10 -47 -23
-54 -29 -6 -5 -43 -27 -82 -47 -96 -51 -486 -277 -602 -349 -51 -33 -101 -59
-110 -59 -10 0 -26 -9 -36 -20 -10 -11 -22 -17 -26 -14 -5 3 -9 -2 -9 -10 0
-9 -3 -16 -8 -16 -4 0 -18 -10 -32 -23 -34 -32 -216 -158 -250 -174 -8 -3 -17
-10 -20 -13 -3 -4 -36 -27 -75 -51 -38 -24 -105 -67 -148 -96 -43 -29 -83 -53
-88 -53 -5 0 -9 -5 -9 -11 0 -5 -4 -8 -9 -5 -5 4 -11 2 -13 -3 -4 -11 -305
-211 -318 -211 -6 0 -10 -4 -10 -8 0 -5 -16 -17 -35 -28 -19 -10 -35 -21 -35
-24 0 -3 -26 -18 -58 -35 -31 -16 -58 -33 -60 -37 -2 -5 -13 -8 -24 -8 -34 0
-514 -296 -622 -384 -31 -25 -61 -46 -66 -46 -19 0 -22 -50 -5 -88 36 -79 69
-138 94 -172 15 -19 38 -57 53 -85 77 -149 167 -321 210 -400 l49 -90 -24 -20
c-13 -11 -115 -94 -228 -185 -112 -91 -211 -172 -219 -180 -9 -8 -38 -33 -65
-55 -28 -22 -113 -93 -190 -159 -77 -65 -165 -137 -195 -159 -30 -22 -62 -47
-71 -56 -32 -32 -87 -78 -209 -176 -69 -55 -127 -102 -130 -106 -3 -3 -48 -43
-100 -89 -130 -113 -296 -268 -470 -436 -256 -250 -324 -314 -332 -314 -11 0
-373 219 -668 404 -140 87 -292 182 -337 210 -45 28 -128 80 -185 116 -56 36
-107 67 -113 69 -5 2 -32 20 -60 40 -27 19 -189 121 -360 227 -532 331 -576
359 -720 451 -144 92 -206 126 -490 266 -113 56 -105 60 -176 -71 -11 -20 -24
-44 -29 -52 -5 -8 -37 -64 -71 -125 -34 -60 -66 -113 -72 -116 -5 -3 -9 -10
-8 -15 0 -16 -117 -194 -157 -239 -7 -8 -10 -15 -5 -15 4 0 3 -4 -2 -8 -6 -4
-30 -34 -54 -67 -25 -33 -47 -62 -50 -65 -4 -3 -19 -23 -36 -45 -16 -22 -31
-42 -35 -45 -3 -3 -17 -21 -32 -42 -15 -20 -33 -42 -40 -50 -7 -7 -42 -51 -78
-98 -128 -169 -408 -517 -490 -610 -178 -203 -581 -630 -594 -630 -2 0 -41
-37 -87 -83 -128 -126 -123 -124 -116 -52 8 72 49 574 49 595 0 8 6 98 14 200
23 310 39 549 49 725 3 55 7 127 10 160 3 33 7 103 10 155 3 52 7 124 10 160
2 36 7 115 10 175 3 61 8 144 10 185 3 41 7 134 10 205 3 72 8 159 10 195 13
190 16 240 20 290 2 30 7 93 10 140 6 87 13 191 20 270 2 25 7 97 10 160 4 63
8 126 10 140 2 14 6 77 10 140 3 63 8 135 10 160 2 25 7 104 10 175 3 72 7
164 10 205 5 90 12 260 21 505 3 99 10 196 14 215 5 19 12 91 15 160 3 69 11
206 18 305 16 242 11 785 -8 935 -17 125 -30 189 -106 505 -104 434 -167 603
-319 866 -155 267 -354 440 -635 553 -126 51 -199 66 -324 66 -142 0 -256 -21
-421 -76 -269 -90 -529 -233 -726 -398 -70 -58 -371 -360 -467 -469 -96 -107
-383 -396 -501 -502 -191 -174 -320 -267 -478 -348 -504 -258 -846 -247 -1271
40 -62 41 -126 87 -143 102 -17 14 -60 49 -95 76 -35 28 -79 64 -98 80 -244
216 -317 295 -380 414 -18 33 10 112 73 206 29 44 83 135 120 203 l68 122 -7
88 c-12 147 -63 273 -134 330 -25 20 -48 39 -51 42 -15 16 -91 70 -131 93 -71
40 -169 78 -544 207 -179 61 -276 100 -296 117 -8 7 -24 13 -35 13 -45 0 -316
148 -504 273 -115 78 -326 303 -588 629 -56 70 -106 129 -112 133 -6 3 -28 33
-50 66 -35 50 -60 73 -60 54z m10218 -8063 c114 -82 310 -218 437 -303 126
-85 234 -158 240 -162 11 -9 263 -176 290 -192 11 -7 -63 -10 -237 -10 -231
-1 -261 -3 -348 -24 -102 -25 -164 -47 -248 -88 -29 -14 -54 -24 -56 -22 -2 2
-25 51 -51 109 -85 187 -211 436 -289 568 -42 71 -76 135 -76 143 0 8 6 21 13
29 14 17 108 100 113 100 2 0 97 -67 212 -148z m6388 -584 c-3 -13 -6 -29 -6
-35 0 -29 -18 -10 -22 22 -3 29 -1 35 15 35 15 0 18 -5 13 -22z m-4637 -603
c59 -38 132 -86 162 -104 30 -19 110 -71 179 -116 69 -45 171 -110 227 -145
l103 -63 -28 -26 c-67 -63 -300 -274 -348 -316 -6 -5 -31 -28 -55 -50 -24 -23
-87 -79 -139 -125 -52 -47 -102 -92 -111 -100 -8 -8 -42 -40 -75 -70 -32 -31
-120 -105 -194 -165 -246 -198 -588 -499 -664 -583 -12 -13 -32 -32 -46 -42
-26 -18 -26 -18 -28 8 -4 50 -34 208 -78 416 -24 115 -44 214 -44 220 0 6 30
43 66 81 37 39 83 90 103 115 20 25 43 52 51 60 9 8 22 25 30 37 8 11 35 47
60 80 126 161 234 360 288 528 28 88 56 211 51 230 -2 11 3 26 36 101 19 44
22 65 19 155 -1 61 -9 122 -18 147 l-15 42 180 -122 c100 -68 229 -154 288
-193z m-608 -317 c-78 -125 -387 -553 -435 -604 -6 -6 -31 -35 -56 -65 -61
-72 -81 -92 -87 -85 -9 9 64 109 283 387 115 147 230 296 256 333 49 68 76 91
39 34z"/>
<path d="M23199 26856 c9 -11 9 -15 -1 -19 -11 -4 -10 -6 0 -6 8 -1 10 -6 6
-13 -5 -10 -3 -10 7 0 17 16 19 34 4 44 -17 13 -28 9 -16 -6z"/>
<path d="M13725 21401 c-3 -5 -2 -12 3 -15 5 -3 9 1 9 9 0 17 -3 19 -12 6z"/>
<path d="M25975 20939 c-4 -6 -5 -12 -2 -15 2 -3 7 2 10 11 7 17 1 20 -8 4z"/>
<path d="M25905 20869 c-4 -6 -5 -12 -2 -15 2 -3 7 2 10 11 7 17 1 20 -8 4z"/>
<path d="M25870 20845 c-7 -8 -9 -15 -4 -15 5 -1 -3 -7 -18 -16 -19 -10 -25
-19 -21 -31 6 -15 8 -14 16 4 5 12 19 26 31 31 14 7 16 11 6 11 -13 1 -13 2 0
11 8 5 12 12 9 15 -4 3 -12 -1 -19 -10z"/>
</g>
</svg>
